<svg xmlns="http://www.w3.org/2000/svg" viewBox="0 0 480 270">
  <defs>
    <linearGradient id="s1" x1="0" y1="0" x2="1" y2="1">
      <stop offset="0%" stop-color="#6366f1" stop-opacity="0.15"/>
      <stop offset="100%" stop-color="#0ad3ff" stop-opacity="0.05"/>
    </linearGradient>
  </defs>
  <rect width="480" height="270" fill="url(#s1)"/>
  <g transform="translate(40,65)" stroke="#6366f1" stroke-width="1.5" fill="none" opacity="0.25">
    <rect x="0" y="0" width="40" height="90" rx="3"/>
    <rect x="55" y="10" width="40" height="80" rx="3"/>
    <rect x="110" y="20" width="40" height="70" rx="3"/>
    <rect x="165" y="30" width="40" height="60" rx="3"/>
    <rect x="220" y="40" width="40" height="50" rx="3"/>
    <rect x="275" y="5" width="40" height="85" rx="3"/>
    <rect x="330" y="15" width="40" height="75" rx="3"/>
    <rect x="385" y="25" width="40" height="65" rx="3"/>
  </g>
  <g stroke-linecap="round" fill="none">
    <rect x="40" y="80" width="40" height="90" rx="3" fill="#0ad3ff" opacity="0.4" stroke="#0ad3ff" stroke-width="1.5"/>
    <rect x="95" y="50" width="40" height="120" rx="3" fill="#6366f1" opacity="0.5" stroke="#6366f1" stroke-width="1.5"/>
    <rect x="150" y="30" width="40" height="140" rx="3" fill="#0ad3ff" opacity="0.6" stroke="#0ad3ff" stroke-width="1.5"/>
    <rect x="205" y="60" width="40" height="110" rx="3" fill="#6366f1" opacity="0.3" stroke="#6366f1" stroke-width="1.5"/>
  </g>
  <text x="50" y="220" font-family="system-ui,sans-serif" font-size="11" fill="rgba(255,255,255,0.15)" letter-spacing="2">SEO PERFORMANCE</text>
</svg>
