<svg xmlns="http://www.w3.org/2000/svg" viewBox="0 0 480 270">
  <defs>
    <linearGradient id="a1" x1="0" y1="0" x2="1" y2="1">
      <stop offset="0%" stop-color="#ff5b94" stop-opacity="0.12"/>
      <stop offset="100%" stop-color="#6366f1" stop-opacity="0.05"/>
    </linearGradient>
  </defs>
  <rect width="480" height="270" fill="url(#a1)"/>
  <g transform="translate(120,55)" fill="none" stroke-width="1.5">
    <circle cx="0" cy="0" r="8" fill="#6366f1" opacity="0.3" stroke="#6366f1"/>
    <circle cx="30" cy="-25" r="5" fill="#0ad3ff" opacity="0.4" stroke="#0ad3ff"/>
    <circle cx="-25" cy="-20" r="4" fill="#ff5b94" opacity="0.4" stroke="#ff5b94"/>
    <circle cx="20" cy="20" r="5" fill="#0ad3ff" opacity="0.4" stroke="#0ad3ff"/>
    <circle cx="-20" cy="22" r="4" fill="#ff5b94" opacity="0.3" stroke="#ff5b94"/>
    <circle cx="45" cy="15" r="3" fill="#6366f1" opacity="0.3" stroke="#6366f1"/>
    <circle cx="-40" cy="5" r="3" fill="#6366f1" opacity="0.3" stroke="#6366f1"/>
    <line x1="0" y1="0" x2="30" y2="-25" stroke="#0ad3ff" opacity="0.2"/>
    <line x1="0" y1="0" x2="-25" y2="-20" stroke="#ff5b94" opacity="0.2"/>
    <line x1="0" y1="0" x2="20" y2="20" stroke="#0ad3ff" opacity="0.2"/>
    <line x1="0" y1="0" x2="-20" y2="22" stroke="#ff5b94" opacity="0.2"/>
    <line x1="0" y1="0" x2="45" y2="15" stroke="#6366f1" opacity="0.2"/>
    <line x1="0" y1="0" x2="-40" y2="5" stroke="#6366f1" opacity="0.2"/>
  </g>
  <g transform="translate(40,145)" stroke="#6366f1" stroke-width="1" fill="none" opacity="0.15">
    <rect x="0" y="0" width="400" height="40" rx="6"/>
    <rect x="0" y="50" width="300" height="12" rx="4"/>
    <rect x="0" y="70" width="350" height="12" rx="4"/>
  </g>
  <text x="50" y="220" font-family="system-ui,sans-serif" font-size="11" fill="rgba(255,255,255,0.15)" letter-spacing="2">AI · SAAS ENGINEERING</text>
</svg>
