<svg xmlns="http://www.w3.org/2000/svg" viewBox="0 0 480 270">
  <defs>
    <linearGradient id="c1" x1="0" y1="0" x2="1" y2="1">
      <stop offset="0%" stop-color="#0ad3ff" stop-opacity="0.15"/>
      <stop offset="100%" stop-color="#6366f1" stop-opacity="0.05"/>
    </linearGradient>
  </defs>
  <rect width="480" height="270" fill="url(#c1)"/>
  <g transform="translate(60,60)" stroke="#0ad3ff" stroke-width="1.5" fill="none" opacity="0.3">
    <rect x="0" y="0" width="80" height="50" rx="4"/>
    <rect x="100" y="10" width="80" height="40" rx="4"/>
    <rect x="200" y="5" width="80" height="45" rx="4"/>
    <rect x="0" y="65" width="80" height="35" rx="4"/>
    <rect x="100" y="60" width="80" height="40" rx="4"/>
    <rect x="200" y="62" width="80" height="38" rx="4"/>
  </g>
  <g transform="translate(60,60)" stroke="#6366f1" stroke-width="2" fill="none">
    <polyline points="10,40 50,20 90,35 130,15 170,30 210,10" stroke="#0ad3ff" opacity="0.6"/>
    <polyline points="10,90 50,70 90,85 130,60 170,75 210,55" stroke="#6366f1" opacity="0.4"/>
  </g>
  <text x="50" y="220" font-family="system-ui,sans-serif" font-size="11" fill="rgba(255,255,255,0.15)" letter-spacing="2">CLOUD INFRASTRUCTURE</text>
</svg>
