<svg xmlns="http://www.w3.org/2000/svg" viewBox="0 0 480 270">
  <defs>
    <linearGradient id="bg2" x1="0" y1="0" x2="0" y2="1">
      <stop offset="0%" stop-color="#0b0e1a"/>
      <stop offset="100%" stop-color="#0f1324"/>
    </linearGradient>
    <linearGradient id="sc1" x1="0" y1="1" x2="0" y2="0">
      <stop offset="0%" stop-color="#0ad3ff" stop-opacity="0.2"/>
      <stop offset="100%" stop-color="#0ad3ff" stop-opacity="0.7"/>
    </linearGradient>
    <linearGradient id="sc2" x1="0" y1="1" x2="0" y2="0">
      <stop offset="0%" stop-color="#6366f1" stop-opacity="0.2"/>
      <stop offset="100%" stop-color="#6366f1" stop-opacity="0.7"/>
    </linearGradient>
    <linearGradient id="sc3" x1="0" y1="1" x2="0" y2="0">
      <stop offset="0%" stop-color="#ff5b94" stop-opacity="0.1"/>
      <stop offset="100%" stop-color="#ff5b94" stop-opacity="0.5"/>
    </linearGradient>
  </defs>
  <rect width="480" height="270" fill="url(#bg2)"/>
  <!-- Gauge semicircle background -->
  <g transform="translate(240,210)">
    <path d="M-130 0 A130 130 0 0 1 130 0" stroke="rgba(255,255,255,0.04)" stroke-width="20" fill="none"/>
    <path d="M-130 0 A130 130 0 0 1 -10 -129.6" stroke="#0ad3ff" stroke-width="20" fill="none" stroke-linecap="round" opacity="0.8"/>
    <path d="M-10 -129.6 A130 130 0 0 1 100 -83.1" stroke="#6366f1" stroke-width="20" fill="none" stroke-linecap="round" opacity="0.6"/>
    <path d="M100 -83.1 A130 130 0 0 1 130 0" stroke="#ff5b94" stroke-width="20" fill="none" stroke-linecap="round" opacity="0.3"/>
  </g>
  <!-- Score labels -->
  <text x="80" y="215" font-family="system-ui,sans-serif" font-size="28" font-weight="800" fill="#0ad3ff" opacity="0.9">98</text>
  <text x="75" y="232" font-family="system-ui,sans-serif" font-size="9" fill="rgba(255,255,255,0.3)" letter-spacing="1">SSG</text>
  <text x="195" y="200" font-family="system-ui,sans-serif" font-size="22" font-weight="700" fill="#6366f1" opacity="0.7">92</text>
  <text x="192" y="215" font-family="system-ui,sans-serif" font-size="9" fill="rgba(255,255,255,0.25)" letter-spacing="1">SSR</text>
  <text x="340" y="210" font-family="system-ui,sans-serif" font-size="20" font-weight="600" fill="#ff5b94" opacity="0.5">72</text>
  <text x="332" y="225" font-family="system-ui,sans-serif" font-size="9" fill="rgba(255,255,255,0.2)" letter-spacing="1">TRAD</text>
  <!-- Gauge needle -->
  <g transform="translate(240,210)">
    <line x1="0" y1="0" x2="90" y2="-90" stroke="#0ad3ff" stroke-width="2" opacity="0.6"/>
    <circle cx="0" cy="0" r="6" fill="#0ad3ff" opacity="0.8"/>
    <circle cx="0" cy="0" r="3" fill="#0a0e1a"/>
  </g>
  <text x="240" y="255" text-anchor="middle" font-family="system-ui,sans-serif" font-size="11" fill="rgba(255,255,255,0.2)" letter-spacing="2">CORE WEB VITALS BENCHMARKS</text>
</svg>
